<svg width="1440" height="900" viewBox="0 0 1440 900" fill="none" xmlns="http://www.w3.org/2000/svg">
<g clip-path="url(#clip0)">
<rect width="1440" height="900" fill="url(#paint0_linear)"/>
<path opacity="0.3" d="M806.993 232.509C625.322 148.448 261.62 562.314 -85.2568 316.57L-85.2568 -71.5L1437.5 0.5V614.36C1437.5 614.36 1531.44 633.139 1282.2 614.36C1032.96 595.58 988.665 316.57 806.993 232.509Z" fill="url(#paint1_linear)"/>
<path opacity="0.3" d="M485 903L4 903V516.5C4 516.5 31.2319 491.689 102.359 541.527C173.487 591.364 124.157 725.236 218.5 742.999C312.843 760.763 474.5 751.501 485 903Z" fill="url(#paint2_linear)"/>
<path opacity="0.3" d="M378.5 527.5C170.5 454.5 93.5 47.1 79.5 9.5H1438V900C1438 900 1349.5 963 1198 900C1046.5 837 1130 538 900 495C670 452 586.5 600.5 378.5 527.5Z" fill="#87D6BD"/>
</g>
<defs>
<linearGradient id="paint0_linear" x1="1377.5" y1="8.41592e-05" x2="22.5001" y2="939.5" gradientUnits="userSpaceOnUse">
<stop stop-color="#87D6BD"/>
<stop offset="0.41993" stop-color="#19A2A6"/>
<stop offset="0.759805" stop-color="#40B5B0"/>
<stop offset="1" stop-color="#87D6BD"/>
</linearGradient>
<linearGradient id="paint1_linear" x1="1299" y1="-70.9999" x2="525.5" y2="276" gradientUnits="userSpaceOnUse">
<stop offset="1" stop-color="#87D6BD"/>
</linearGradient>
<linearGradient id="paint2_linear" x1="320" y1="879.5" x2="72.4999" y2="553" gradientUnits="userSpaceOnUse">
<stop stop-color="#87D6BD"/>
<stop offset="1" stop-color="#40B5B0"/>
</linearGradient>
<clipPath id="clip0">
<rect width="1440" height="900" fill="white"/>
</clipPath>
</defs>
</svg>
